<svg xmlns="http://www.w3.org/2000/svg" fill="none" viewBox="0 0 107 56" height="56" width="107">
<g clip-path="url(#clip0_362_27619)">
<path fill="white" d="M1.48 13C0.4 13 -0.5 13.84 -0.5 14.92C-0.5 16 0.34 16.9 1.42 16.9C2.5 16.9 3.4 16.06 3.4 14.98C3.4 13.9 2.5 13 1.48 13ZM73.72 13C72.64 13 71.74 13.9 71.74 14.98C71.74 16.06 72.64 16.96 73.72 16.96C74.8 16.96 75.7 16.06 75.7 14.98C75.7 13.9 74.8 13 73.72 13ZM7.42 13.6V16.36H67.78V13.6H7.42ZM15.58 21.1C13.42 21.1 11.8 22.36 10.84 23.08L10.72 23.2C10.48 22.24 9.7 21.58 8.74 21.52H7.42V36.7H10.84V25.6C11.5 25.24 13.06 24.28 14.5 24.28C16.42 24.28 16.78 25.3 16.78 27.46V36.7H20.2V27.04C20.2 23.92 19.9 21.1 15.58 21.1ZM63.16 21.1C61 21.1 59.38 22.36 58.42 23.08C58.36 23.14 58.36 23.14 58.3 23.2C58.06 22.24 57.28 21.58 56.32 21.52H55V36.7H58.42V25.6C59.08 25.24 60.64 24.28 62.08 24.28C64 24.28 64.36 25.3 64.36 27.46V36.7H67.78V27.04C67.78 23.92 67.48 21.1 63.16 21.1ZM86.02 21.16C81.52 21.16 78.7 24.22 78.7 29.02C78.7 34.72 80.86 37 86.56 37C87.76 37 88.96 36.82 90.16 36.52L89.68 33.7C88.72 33.88 87.76 34 86.8 34.06C83.08 34.06 82.24 32.56 82.24 29.08C82.24 25.54 83.92 24.16 86.08 24.16C87.22 24.16 88.3 24.4 89.32 24.82L90.28 22.12C88.96 21.4 87.46 21.04 86.02 21.16ZM99.04 21.16C94.84 21.16 92.02 24.16 92.02 29.26C92.02 34.12 94.48 37.06 98.8 37.06C102.88 37.06 105.94 34.36 105.94 29.14C105.94 24.04 103.72 21.16 99.04 21.16ZM46.24 21.16C42.28 21.16 39.34 23.2 39.34 29.38C39.34 35.32 42.16 37 46.6 37C48.28 37.06 49.96 36.82 51.58 36.4L51.04 33.58C49.78 33.82 48.52 33.94 47.2 33.94C44.68 33.94 42.76 33.46 42.7 30.16H51.94V28.84C51.94 24.04 50.32 21.16 46.24 21.16ZM30.64 21.28C26.62 21.28 23.26 24.04 23.26 29.2C23.26 36.1 26.86 36.94 30.1 36.94C31.12 36.94 32.02 36.58 32.8 35.92C32.8 36.22 32.8 36.46 32.8 36.76C32.8 39.46 31.3 39.82 29.02 39.82C27.58 39.76 26.14 39.58 24.76 39.22L24.22 42.1C25.96 42.64 27.76 42.88 29.56 42.88C32.56 42.88 36.16 41.32 36.16 37.12V21.88C34.36 21.52 32.5 21.34 30.64 21.28ZM-0.26 21.52V36.7H3.16V21.52H-0.26ZM72.04 21.52V36.7H75.46V21.52H72.04ZM45.94 23.92C47.38 23.92 48.52 25.18 48.46 27.52H42.82C42.94 25 44.44 23.92 45.94 23.92ZM98.98 24.04C101.8 24.04 102.46 26.5 102.46 29.08C102.46 31.84 101.8 34.06 99.04 34.06C96.34 34.06 95.44 31.96 95.44 29.08C95.44 26.5 96.16 24.04 98.98 24.04ZM30.58 24.28C31.3 24.28 32.08 24.34 32.8 24.46V33.34C32.02 33.82 31.18 34.06 30.28 34.12C28.06 34.12 26.62 32.86 26.62 29.26C26.62 26.38 27.76 24.28 30.58 24.28Z"></path>
</g>
<defs>
<clipPath id="clip0_362_27619">
<rect fill="white" height="56" width="107"></rect>
</clipPath>
</defs>
</svg>
