<svg xmlns="http://www.w3.org/2000/svg" xmlns:xlink="http://www.w3.org/1999/xlink" width="500" zoomAndPan="magnify" viewBox="0 0 375 374.999991" height="500" preserveAspectRatio="xMidYMid meet" version="1.0"><defs><g/><clipPath id="ec407ac483"><path d="M 111.453125 181 L 147 181 L 147 216.921875 L 111.453125 216.921875 Z M 111.453125 181 " clip-rule="nonzero"/></clipPath><clipPath id="b4b829563e"><path d="M 110.703125 198.644531 C 110.703125 208.847656 118.976562 217.117188 129.175781 217.117188 C 139.378906 217.117188 147.652344 208.847656 147.652344 198.644531 C 147.652344 188.441406 139.378906 180.171875 129.175781 180.171875 C 118.976562 180.171875 110.703125 188.441406 110.703125 198.644531 Z M 110.703125 198.644531 " clip-rule="nonzero"/></clipPath><clipPath id="86f7c969c9"><path d="M 129.175781 181.070312 C 138.882812 181.070312 146.75 188.941406 146.75 198.644531 C 146.75 208.351562 138.882812 216.21875 129.175781 216.21875 C 119.472656 216.21875 111.605469 208.351562 111.605469 198.644531 C 111.605469 188.941406 119.472656 181.070312 129.175781 181.070312 Z M 129.175781 181.070312 " clip-rule="nonzero"/></clipPath><clipPath id="0fde55b3a5"><path d="M 110.703125 180.171875 L 147.453125 180.171875 L 147.453125 216.921875 L 110.703125 216.921875 Z M 110.703125 180.171875 " clip-rule="nonzero"/></clipPath><clipPath id="914dba6772"><path d="M 110.703125 198.644531 C 110.703125 208.847656 118.976562 217.117188 129.175781 217.117188 C 139.378906 217.117188 147.652344 208.847656 147.652344 198.644531 C 147.652344 188.441406 139.378906 180.171875 129.175781 180.171875 C 118.976562 180.171875 110.703125 188.441406 110.703125 198.644531 Z M 110.703125 198.644531 " clip-rule="nonzero"/></clipPath><clipPath id="5b9e58140b"><path d="M 110.703125 198.640625 C 110.703125 208.839844 118.972656 217.109375 129.171875 217.109375 C 139.371094 217.109375 147.640625 208.839844 147.640625 198.640625 C 147.640625 188.441406 139.371094 180.171875 129.171875 180.171875 C 118.972656 180.171875 110.703125 188.441406 110.703125 198.640625 Z M 110.703125 198.640625 " clip-rule="nonzero"/></clipPath><clipPath id="2fb1402ecc"><path d="M 129.175781 195.503906 L 249.75 195.503906 L 249.75 201.785156 L 129.175781 201.785156 Z M 129.175781 195.503906 " clip-rule="nonzero"/></clipPath><clipPath id="974d651033"><path d="M 238.734375 187.628906 L 260.761719 187.628906 L 260.761719 209.660156 L 238.734375 209.660156 Z M 238.734375 187.628906 " clip-rule="nonzero"/></clipPath><clipPath id="37a2aa9dc6"><path d="M 143 107 L 255 107 L 255 192 L 143 192 Z M 143 107 " clip-rule="nonzero"/></clipPath><clipPath id="c98f44d3a8"><path d="M 143.339844 185.847656 L 250.1875 107.035156 L 254.402344 112.75 L 147.554688 191.566406 Z M 143.339844 185.847656 " clip-rule="nonzero"/></clipPath><clipPath id="1f2c318d64"><path d="M 143.339844 185.847656 L 250.183594 107.035156 L 254.398438 112.753906 L 147.554688 191.566406 Z M 143.339844 185.847656 " clip-rule="nonzero"/></clipPath><clipPath id="c671406740"><path d="M 139.191406 103.898438 L 249.75 103.898438 L 249.75 109.554688 L 139.191406 109.554688 Z M 139.191406 103.898438 " clip-rule="nonzero"/></clipPath><clipPath id="59c41f4a27"><path d="M 240.234375 92.777344 L 268.757812 92.777344 L 268.757812 121.300781 L 240.234375 121.300781 Z M 240.234375 92.777344 " clip-rule="nonzero"/></clipPath><clipPath id="5caac55265"><path d="M 254.496094 92.777344 C 246.617188 92.777344 240.234375 99.164062 240.234375 107.039062 C 240.234375 114.914062 246.617188 121.300781 254.496094 121.300781 C 262.371094 121.300781 268.757812 114.914062 268.757812 107.039062 C 268.757812 99.164062 262.371094 92.777344 254.496094 92.777344 Z M 254.496094 92.777344 " clip-rule="nonzero"/></clipPath><clipPath id="c78c90463a"><path d="M 118.164062 95.710938 L 140.191406 95.710938 L 140.191406 117.742188 L 118.164062 117.742188 Z M 118.164062 95.710938 " clip-rule="nonzero"/></clipPath></defs><rect x="-37.5" width="450" fill="#ffffff" y="-37.499999" height="449.999989" fill-opacity="1"/><rect x="-37.5" width="450" fill="#000000" y="-37.499999" height="449.999989" fill-opacity="1"/><g clip-path="url(#ec407ac483)"><g clip-path="url(#b4b829563e)"><g clip-path="url(#86f7c969c9)"><path fill="#00ff43" d="M 147.640625 198.640625 C 147.640625 199.246094 147.613281 199.847656 147.554688 200.449219 C 147.492188 201.054688 147.40625 201.652344 147.285156 202.242188 C 147.167969 202.835938 147.023438 203.421875 146.847656 204 C 146.671875 204.582031 146.46875 205.148438 146.234375 205.707031 C 146.003906 206.265625 145.746094 206.8125 145.460938 207.347656 C 145.175781 207.878906 144.863281 208.398438 144.527344 208.902344 C 144.191406 209.40625 143.832031 209.890625 143.449219 210.355469 C 143.066406 210.824219 142.660156 211.273438 142.230469 211.699219 C 141.804688 212.128906 141.355469 212.535156 140.890625 212.917969 C 140.421875 213.300781 139.9375 213.660156 139.433594 213.996094 C 138.929688 214.332031 138.414062 214.644531 137.878906 214.929688 C 137.34375 215.214844 136.800781 215.472656 136.242188 215.703125 C 135.683594 215.933594 135.113281 216.136719 134.535156 216.3125 C 133.957031 216.488281 133.371094 216.636719 132.777344 216.753906 C 132.183594 216.871094 131.585938 216.960938 130.984375 217.019531 C 130.382812 217.078125 129.777344 217.109375 129.171875 217.109375 C 128.566406 217.109375 127.964844 217.078125 127.363281 217.019531 C 126.761719 216.960938 126.164062 216.871094 125.570312 216.753906 C 124.976562 216.636719 124.390625 216.488281 123.8125 216.3125 C 123.234375 216.136719 122.664062 215.933594 122.105469 215.703125 C 121.546875 215.472656 121 215.214844 120.46875 214.929688 C 119.933594 214.644531 119.414062 214.332031 118.914062 213.996094 C 118.410156 213.660156 117.925781 213.300781 117.457031 212.917969 C 116.988281 212.535156 116.542969 212.128906 116.113281 211.699219 C 115.6875 211.273438 115.28125 210.824219 114.894531 210.355469 C 114.511719 209.890625 114.152344 209.40625 113.816406 208.902344 C 113.480469 208.398438 113.171875 207.878906 112.886719 207.347656 C 112.601562 206.8125 112.339844 206.265625 112.109375 205.707031 C 111.878906 205.148438 111.675781 204.582031 111.5 204 C 111.324219 203.421875 111.175781 202.835938 111.058594 202.242188 C 110.941406 201.652344 110.851562 201.054688 110.792969 200.449219 C 110.734375 199.847656 110.703125 199.246094 110.703125 198.640625 C 110.703125 198.035156 110.734375 197.433594 110.792969 196.832031 C 110.851562 196.226562 110.941406 195.628906 111.058594 195.039062 C 111.175781 194.445312 111.324219 193.859375 111.5 193.28125 C 111.675781 192.699219 111.878906 192.132812 112.109375 191.574219 C 112.339844 191.015625 112.601562 190.46875 112.886719 189.933594 C 113.171875 189.402344 113.480469 188.882812 113.816406 188.378906 C 114.152344 187.878906 114.511719 187.390625 114.894531 186.925781 C 115.28125 186.457031 115.6875 186.007812 116.113281 185.582031 C 116.542969 185.152344 116.988281 184.746094 117.457031 184.363281 C 117.925781 183.980469 118.410156 183.621094 118.914062 183.285156 C 119.414062 182.949219 119.933594 182.636719 120.46875 182.351562 C 121 182.066406 121.546875 181.808594 122.105469 181.578125 C 122.664062 181.347656 123.234375 181.144531 123.8125 180.96875 C 124.390625 180.792969 124.976562 180.644531 125.570312 180.527344 C 126.164062 180.410156 126.761719 180.320312 127.363281 180.261719 C 127.964844 180.203125 128.566406 180.171875 129.171875 180.171875 C 129.777344 180.171875 130.382812 180.203125 130.984375 180.261719 C 131.585938 180.320312 132.183594 180.410156 132.777344 180.527344 C 133.371094 180.644531 133.957031 180.792969 134.535156 180.96875 C 135.113281 181.144531 135.683594 181.347656 136.242188 181.578125 C 136.800781 181.808594 137.34375 182.066406 137.878906 182.351562 C 138.414062 182.636719 138.929688 182.949219 139.433594 183.285156 C 139.9375 183.621094 140.421875 183.980469 140.890625 184.363281 C 141.355469 184.746094 141.804688 185.152344 142.230469 185.582031 C 142.660156 186.007812 143.066406 186.457031 143.449219 186.925781 C 143.832031 187.390625 144.191406 187.878906 144.527344 188.378906 C 144.863281 188.882812 145.175781 189.402344 145.460938 189.933594 C 145.746094 190.46875 146.003906 191.015625 146.234375 191.574219 C 146.46875 192.132812 146.671875 192.699219 146.847656 193.28125 C 147.023438 193.859375 147.167969 194.445312 147.285156 195.039062 C 147.40625 195.628906 147.492188 196.226562 147.554688 196.832031 C 147.613281 197.433594 147.640625 198.035156 147.640625 198.640625 Z M 147.640625 198.640625 " fill-opacity="1" fill-rule="nonzero"/></g></g></g><g clip-path="url(#0fde55b3a5)"><g clip-path="url(#914dba6772)"><g clip-path="url(#5b9e58140b)"><path stroke-linecap="butt" transform="matrix(0.75, 0, 0, 0.75, 110.704216, 180.171931)" fill="none" stroke-linejoin="miter" d="M -0.00145524 24.624926 C -0.00145524 38.223886 11.024587 49.249928 24.623546 49.249928 C 38.222506 49.249928 49.248548 38.223886 49.248548 24.624926 C 49.248548 11.025967 38.222506 -0.0000751583 24.623546 -0.0000751583 C 11.024587 -0.0000751583 -0.00145524 11.025967 -0.00145524 24.624926 Z M -0.00145524 24.624926 " stroke="#000000" stroke-width="10" stroke-opacity="1" stroke-miterlimit="4"/></g></g></g><g clip-path="url(#2fb1402ecc)"><path fill="#00ff43" d="M 129.175781 195.503906 L 249.742188 195.503906 L 249.742188 201.785156 L 129.175781 201.785156 Z M 129.175781 195.503906 " fill-opacity="1" fill-rule="nonzero"/></g><g clip-path="url(#974d651033)"><path fill="#00ff43" d="M 238.734375 187.628906 L 260.761719 187.628906 L 260.761719 209.660156 L 238.734375 209.660156 Z M 238.734375 187.628906 " fill-opacity="1" fill-rule="nonzero"/></g><g clip-path="url(#37a2aa9dc6)"><g clip-path="url(#c98f44d3a8)"><g clip-path="url(#1f2c318d64)"><path fill="#00ff43" d="M 143.339844 185.847656 L 250.1875 107.035156 L 254.402344 112.75 L 147.554688 191.566406 Z M 143.339844 185.847656 " fill-opacity="1" fill-rule="nonzero"/></g></g></g><g clip-path="url(#c671406740)"><path fill="#00ff43" d="M 139.191406 103.898438 L 249.757812 103.898438 L 249.757812 109.554688 L 139.191406 109.554688 Z M 139.191406 103.898438 " fill-opacity="1" fill-rule="nonzero"/></g><g clip-path="url(#59c41f4a27)"><g clip-path="url(#5caac55265)"><path fill="#00ff43" d="M 240.234375 92.777344 L 268.757812 92.777344 L 268.757812 121.300781 L 240.234375 121.300781 Z M 240.234375 92.777344 " fill-opacity="1" fill-rule="nonzero"/></g></g><g fill="#ffffff" fill-opacity="1"><g transform="translate(111.602938, 252.433319)"><g><path d="M 8.609375 -22.34375 C 9.046875 -22.5 9.65625 -22.578125 10.3125 -22.578125 L 22.3125 -22.578125 C 22.609375 -22.578125 23.234375 -22.703125 23.234375 -23.78125 L 23.234375 -24.546875 L 27.484375 -24.546875 L 27.484375 -25.25 L 26.21875 -25.25 L 26.21875 -26.34375 C 26.21875 -26.875 26.046875 -27.140625 25.84375 -27.3125 L 21.4375 -27.3125 C 21.234375 -27.484375 21 -27.515625 20.875 -27.515625 L 8.71875 -27.515625 C 7.875 -27.515625 7.109375 -27.453125 6.40625 -27.3125 L 12.328125 -27.3125 C 11.78125 -27.21875 11.3125 -27.078125 10.859375 -26.953125 C 9.890625 -26.578125 9.078125 -25.984375 8.453125 -25.25 L 9.71875 -25.25 C 9.6875 -25.171875 9.609375 -25.109375 9.578125 -25.078125 C 9.453125 -24.90625 9.3125 -24.703125 9.21875 -24.546875 L 3.4375 -24.546875 C 2.96875 -23.78125 2.609375 -22.875 2.375 -21.796875 C 2.34375 -21.671875 2.296875 -21.5 2.265625 -21.375 L 6.546875 -21.375 C 6.40625 -20.734375 6.34375 -20.03125 6.28125 -19.265625 L 2.375 -19.265625 C 2.296875 -18.5625 2.265625 -17.828125 2.265625 -17.0625 L 2.265625 -15.890625 L 5.4375 -15.890625 L 5.4375 -15.1875 L 2.96875 -15.1875 L 2.96875 -10.453125 C 2.96875 -10.25 2.96875 -10.046875 2.96875 -9.890625 L 4.78125 -9.890625 C 4.78125 -9.15625 4.8125 -8.453125 4.875 -7.78125 L 5.84375 -7.78125 C 5.90625 -7.015625 6.015625 -6.3125 6.171875 -5.640625 C 6.375 -4.78125 6.640625 -4 7.015625 -3.34375 L 3.9375 -3.34375 C 4.109375 -2.96875 4.3125 -2.671875 4.5 -2.375 C 4.875 -1.9375 5.28125 -1.5625 5.703125 -1.234375 L 8.453125 -1.234375 C 8.84375 -0.96875 9.28125 -0.734375 9.78125 -0.5625 L 6.4375 -0.5625 C 6.484375 -0.53125 6.484375 -0.53125 6.515625 -0.53125 C 7.515625 -0.171875 8.78125 0.03125 10.25 0.03125 L 22.40625 0.03125 C 22.640625 0.03125 23.078125 -0.03125 23.234375 -0.5625 L 26.578125 -0.5625 C 26.609375 -0.703125 26.671875 -0.90625 26.671875 -1.140625 L 26.671875 -1.234375 L 23.9375 -1.234375 L 23.9375 -3.34375 L 27.046875 -3.34375 L 27.046875 -3.765625 C 27.046875 -4.8125 26.40625 -4.9375 26.109375 -4.9375 L 14.125 -4.9375 C 13.421875 -4.9375 12.859375 -5.015625 12.421875 -5.171875 C 11.984375 -5.3125 11.65625 -5.546875 11.421875 -5.90625 C 11.15625 -6.25 10.953125 -6.75 10.859375 -7.375 C 10.8125 -7.515625 10.8125 -7.640625 10.78125 -7.78125 L 9.8125 -7.78125 C 9.75 -8.375 9.71875 -9.078125 9.71875 -9.890625 L 7.90625 -9.890625 L 7.90625 -15.1875 L 16.1875 -15.1875 L 16.1875 -15.890625 L 7.25 -15.890625 L 7.25 -17.65625 C 7.25 -18.265625 7.25 -18.796875 7.3125 -19.265625 L 11.1875 -19.265625 C 11.21875 -19.59375 11.25 -19.875 11.3125 -20.140625 C 11.390625 -20.640625 11.546875 -21.03125 11.71875 -21.375 L 7.453125 -21.375 C 7.515625 -21.4375 7.546875 -21.53125 7.609375 -21.609375 C 7.84375 -21.96875 8.1875 -22.203125 8.609375 -22.34375 Z M 16.921875 -7.375 L 24.203125 -7.375 L 24.203125 -7.015625 L 16.921875 -7.015625 Z M 10.484375 -17.796875 L 17.796875 -17.796875 L 17.796875 -17.4375 L 10.484375 -17.4375 Z M 14.125 -13.328125 L 24.96875 -13.328125 L 24.96875 -12.65625 L 14.125 -12.65625 Z M 8.921875 -9.890625 L 12.953125 -9.890625 L 12.953125 -9.515625 L 8.921875 -9.515625 Z M 8.921875 -9.890625 "/></g></g></g><g fill="#ffffff" fill-opacity="1"><g transform="translate(137.28091, 252.433319)"><g><path d="M 26.875 -27.515625 L 4.78125 -27.515625 C 4.46875 -27.515625 3.8125 -27.40625 3.8125 -26.375 L 3.8125 -25.3125 L 1.234375 -25.3125 L 1.234375 -23.78125 C 1.234375 -22.671875 1.90625 -22.578125 2.203125 -22.578125 L 10.78125 -22.578125 L 10.78125 -21.5625 L 14.421875 -21.5625 L 14.421875 -20.765625 L 11.421875 -20.765625 L 11.421875 -16.0625 L 13.359375 -16.0625 L 13.359375 -13.625 L 11.953125 -13.625 L 11.953125 -9.953125 L 13.359375 -9.953125 L 13.359375 -9.15625 L 11.421875 -9.15625 L 11.421875 -6.75 L 13.359375 -6.75 L 13.359375 -4.34375 L 11.515625 -4.34375 L 11.515625 -1.96875 L 14.421875 -1.96875 L 14.421875 -1.140625 C 14.421875 -0.09375 15.09375 0 15.359375 0 L 18.46875 0 C 18.734375 0 19.40625 -0.09375 19.40625 -1.140625 L 19.40625 -1.96875 L 18.53125 -1.96875 L 18.53125 -4.34375 L 17.53125 -4.34375 L 19.53125 -4.34375 L 19.53125 -6.75 L 16.390625 -6.75 L 16.390625 -9.15625 L 19.53125 -9.15625 L 19.53125 -9.953125 L 16.921875 -9.953125 L 16.921875 -13.625 L 19.171875 -13.625 L 19.171875 -16.0625 L 16.390625 -16.0625 L 16.390625 -20.765625 L 22.46875 -20.765625 L 22.46875 -21.5625 L 15.734375 -21.5625 L 15.734375 -22.578125 L 24.3125 -22.578125 C 24.609375 -22.578125 25.28125 -22.671875 25.28125 -23.78125 L 25.28125 -25.3125 L 27.84375 -25.3125 L 27.84375 -26.375 C 27.84375 -27.40625 27.1875 -27.515625 26.875 -27.515625 Z M 23.4375 -18.234375 L 18.59375 -18.234375 L 18.59375 -19.09375 L 23.4375 -19.09375 Z M 10.015625 -20.328125 L 3.8125 -20.328125 L 3.8125 -20.765625 L 10.015625 -20.765625 Z M 10.015625 -20.328125 "/></g></g></g><g fill="#ffffff" fill-opacity="1"><g transform="translate(165.663667, 252.433319)"><g><path d="M 21.96875 -13.484375 C 22.46875 -14.21875 22.84375 -15.09375 23.078125 -16.125 L 27.28125 -16.125 C 27.34375 -16.359375 27.40625 -16.65625 27.453125 -16.921875 L 22.875 -16.921875 C 23 -17.65625 23.078125 -18.46875 23.078125 -19.328125 L 26.609375 -19.328125 C 26.609375 -19.359375 26.609375 -19.40625 26.609375 -19.4375 C 26.609375 -20.265625 26.546875 -21.03125 26.4375 -21.703125 L 25.140625 -21.703125 C 25.140625 -21.734375 25.140625 -21.734375 25.140625 -21.734375 L 23.671875 -21.734375 C 23.546875 -22.640625 23.34375 -23.40625 23.078125 -24.109375 L 25.671875 -24.109375 C 25.484375 -24.578125 25.25 -25.015625 24.96875 -25.375 C 24.671875 -25.84375 24.28125 -26.21875 23.8125 -26.515625 L 20.96875 -26.515625 C 20 -27.1875 18.765625 -27.515625 17.203125 -27.515625 L 1.796875 -27.515625 C 1.53125 -27.515625 0.9375 -27.40625 0.875 -26.515625 L 3.703125 -26.515625 C 3.703125 -26.4375 3.703125 -26.40625 3.703125 -26.34375 L 3.703125 -24.109375 L 1.0625 -24.109375 L 1.0625 -23.703125 C 1.0625 -22.671875 1.734375 -22.578125 2.03125 -22.578125 L 16.5625 -22.578125 C 17.4375 -22.578125 18.03125 -22.34375 18.359375 -21.84375 C 18.359375 -21.796875 18.390625 -21.765625 18.390625 -21.734375 L 19.875 -21.734375 C 19.875 -21.734375 19.875 -21.734375 19.875 -21.703125 L 21.171875 -21.703125 C 21.5 -21.203125 21.671875 -20.4375 21.671875 -19.4375 C 21.671875 -19.40625 21.640625 -19.359375 21.640625 -19.328125 L 18.125 -19.328125 C 18.125 -18.296875 17.9375 -17.53125 17.59375 -17.03125 C 17.5625 -17 17.53125 -16.96875 17.5 -16.921875 L 22.078125 -16.921875 C 21.703125 -16.53125 21.171875 -16.296875 20.375 -16.296875 L 5.84375 -16.296875 C 5.703125 -16.296875 5.46875 -16.296875 5.25 -16.125 L 1.03125 -16.125 C 0.828125 -15.953125 0.671875 -15.65625 0.671875 -15.15625 L 0.671875 -12.421875 L 3.84375 -12.421875 L 3.84375 -10.015625 L 1.53125 -10.015625 L 1.53125 -6.109375 L 4 -6.109375 L 4 -5.28125 L 1.53125 -5.28125 L 1.53125 -1.140625 C 1.53125 -1 1.53125 -0.875 1.5625 -0.765625 L 3.109375 -0.765625 C 3.234375 -0.0625 3.765625 0.03125 4.046875 0.03125 L 7.078125 0.03125 C 7.34375 0.03125 7.84375 -0.0625 7.984375 -0.765625 L 6.4375 -0.765625 C 6.484375 -0.875 6.484375 -1 6.484375 -1.140625 L 6.484375 -5.28125 L 11.984375 -5.28125 L 11.984375 -6.109375 L 6.484375 -6.109375 L 6.484375 -10.015625 L 8.78125 -10.015625 L 8.78125 -11.359375 L 15.828125 -11.359375 L 16.5625 -10.015625 L 14.25 -10.015625 L 16.5 -6.109375 L 18.96875 -6.109375 L 19.40625 -5.28125 L 16.96875 -5.28125 L 19.53125 -0.765625 L 21.0625 -0.765625 L 21.140625 -0.640625 C 21.234375 -0.4375 21.375 -0.265625 21.46875 -0.171875 C 21.640625 -0.03125 21.875 0.03125 22.203125 0.03125 L 25.84375 0.03125 C 26.25 0.03125 26.546875 -0.234375 26.609375 -0.640625 C 26.609375 -0.671875 26.609375 -0.703125 26.609375 -0.765625 L 25.078125 -0.765625 C 25.078125 -1.03125 25.046875 -1.265625 24.9375 -1.4375 L 22.671875 -5.28125 L 25.140625 -5.28125 L 24.671875 -6.109375 L 22.203125 -6.109375 L 19.90625 -10.015625 L 22.203125 -10.015625 L 21.375 -11.453125 C 22.4375 -11.59375 23.34375 -11.921875 24.078125 -12.421875 L 20.90625 -12.421875 C 21.296875 -12.71875 21.671875 -13.09375 21.96875 -13.484375 Z M 10.21875 -17.46875 L 3.203125 -17.46875 L 3.203125 -18.328125 L 10.21875 -18.328125 Z M 13.328125 -20.875 L 7.140625 -20.875 L 7.140625 -21.296875 L 13.328125 -21.296875 Z M 15.09375 -2.90625 L 8.921875 -2.90625 L 8.921875 -3.375 L 15.09375 -3.375 Z M 15.09375 -2.90625 "/></g></g></g><g fill="#ffffff" fill-opacity="1"><g transform="translate(193.578941, 252.433319)"><g><path d="M 23.78125 -1.765625 L 23.78125 -3.765625 C 23.78125 -4.8125 23.109375 -4.9375 22.84375 -4.9375 L 11.984375 -4.9375 C 11.28125 -4.9375 10.6875 -5.015625 10.25 -5.171875 L 8.546875 -5.171875 C 8.140625 -5.3125 7.8125 -5.578125 7.578125 -5.90625 C 7.3125 -6.28125 7.140625 -6.78125 7.015625 -7.375 C 7.015625 -7.375 7.015625 -7.375 7.015625 -7.40625 L 8.484375 -7.40625 C 8.375 -8.046875 8.3125 -8.875 8.3125 -9.890625 L 8.3125 -11.015625 L 11.25 -11.015625 L 11.25 -11.75 L 8.421875 -11.75 L 8.421875 -17.4375 L 7.015625 -17.4375 L 7.015625 -19.671875 L 13.0625 -19.671875 L 13.0625 -21.171875 L 7.484375 -21.171875 L 7.484375 -23.40625 L 8.421875 -23.40625 L 8.421875 -25.609375 L 6.71875 -25.609375 L 6.71875 -26.34375 C 6.71875 -27.40625 6.046875 -27.515625 5.78125 -27.515625 L 2.703125 -27.515625 C 2.40625 -27.515625 1.734375 -27.40625 1.734375 -26.34375 L 1.734375 -25.609375 L 3.46875 -25.609375 L 3.46875 -23.40625 L 0.53125 -23.40625 L 0.53125 -21.171875 L 3.109375 -21.171875 L 3.109375 -19.671875 L 2.03125 -19.671875 L 2.03125 -17.4375 L 3.46875 -17.4375 L 3.46875 -11.75 L 1.796875 -11.75 L 1.796875 -11.015625 L 3.375 -11.015625 L 3.375 -10.453125 C 3.375 -9.3125 3.4375 -8.3125 3.546875 -7.40625 L 2.03125 -7.40625 C 2.140625 -6.78125 2.203125 -6.171875 2.34375 -5.671875 C 2.375 -5.46875 2.4375 -5.34375 2.46875 -5.171875 L 4.140625 -5.171875 C 4.4375 -4.078125 4.875 -3.109375 5.46875 -2.40625 C 5.640625 -2.171875 5.8125 -1.96875 6.015625 -1.765625 L 2.8125 -1.765625 C 3.109375 -1.5 3.4375 -1.265625 3.8125 -1.03125 L 7.8125 -1.03125 C 8.140625 -0.828125 8.484375 -0.671875 8.84375 -0.53125 C 9.890625 -0.171875 11.15625 0.03125 12.59375 0.03125 L 23.640625 0.03125 C 23.90625 0.03125 24.515625 -0.09375 24.546875 -1.03125 L 25.546875 -1.03125 C 25.546875 -1.0625 25.546875 -1.109375 25.546875 -1.140625 L 25.546875 -1.765625 Z M 17.5 -12.921875 L 12.625 -12.921875 L 12.625 -13.359375 L 17.5 -13.359375 Z M 15.921875 -7.21875 L 8.921875 -7.21875 L 8.921875 -7.578125 L 15.921875 -7.578125 Z M 17 -23.4375 L 10.15625 -23.4375 L 10.15625 -24.109375 L 17 -24.109375 Z M 17 -23.4375 "/></g></g></g><g fill="#ffffff" fill-opacity="1"><g transform="translate(218.12158, 252.433319)"><g><path d="M 6.078125 -17.796875 L 3.5 -17.796875 L 3.5 -17.359375 L 6.078125 -17.359375 Z M 12.953125 -11.890625 L 10.390625 -11.890625 L 10.390625 -11.421875 L 12.953125 -11.421875 Z M 3.765625 -15.390625 L 3.765625 -13.71875 C 3.765625 -13.5625 3.8125 -13.421875 3.84375 -13.328125 L 1.40625 -13.328125 C 1.53125 -12.984375 1.796875 -12.828125 2.171875 -12.828125 L 12.453125 -12.828125 C 12.828125 -12.828125 13.09375 -12.984375 13.1875 -13.328125 L 15.625 -13.328125 C 15.65625 -13.421875 15.6875 -13.5625 15.6875 -13.71875 L 15.6875 -15.390625 L 12.890625 -15.390625 L 12.890625 -15.65625 C 12.890625 -15.828125 12.859375 -15.953125 12.828125 -16.09375 L 15.5 -16.09375 C 15.390625 -16.390625 15.125 -16.5625 14.765625 -16.5625 L 4.5 -16.5625 C 4.140625 -16.5625 3.90625 -16.390625 3.765625 -16.09375 L 1.0625 -16.09375 C 1.03125 -15.953125 1 -15.828125 1 -15.65625 L 1 -15.390625 Z M 3.765625 -15.390625 "/></g></g></g><g fill="#ffffff" fill-opacity="1"><g transform="translate(234.382895, 252.433319)"><g><path d="M 24.375 -19.5625 C 24.40625 -19.875 24.4375 -20.171875 24.4375 -20.609375 L 24.4375 -21.671875 L 28.1875 -21.671875 L 28.1875 -24.046875 L 23.875 -24.046875 L 23.875 -24.3125 C 23.875 -25.015625 23.78125 -25.578125 23.609375 -26.015625 L 26.578125 -26.015625 C 26.109375 -27.21875 25.140625 -27.515625 24.3125 -27.515625 L 5.984375 -27.515625 C 5.671875 -27.515625 5.015625 -27.40625 5.015625 -26.375 L 5.015625 -26.015625 L 2.03125 -26.015625 L 2.03125 -24.046875 L 4.734375 -24.046875 L 4.734375 -23.703125 C 4.734375 -22.671875 5.40625 -22.578125 5.703125 -22.578125 L 21.53125 -22.578125 C 21.5625 -22.578125 21.640625 -22.53125 21.640625 -22.46875 L 21.640625 -21.671875 L 18.703125 -21.671875 L 18.703125 -21.4375 C 18.703125 -21.40625 18.703125 -21.375 18.671875 -21.375 L 14.296875 -18.203125 L 17.390625 -18.203125 L 13.859375 -15.65625 L 10.8125 -15.65625 L 8.6875 -14.125 L 11.75 -14.125 L 8.921875 -12.09375 L 6.4375 -12.09375 L 3.765625 -10.15625 C 3.46875 -9.953125 3.234375 -9.75 3.03125 -9.546875 C 2.84375 -9.34375 2.703125 -9.078125 2.609375 -8.8125 C 2.5 -8.546875 2.40625 -8.25 2.375 -7.875 C 2.34375 -7.578125 2.296875 -7.21875 2.296875 -6.75 L 2.296875 -6.71875 L 4.34375 -6.71875 L 4.34375 -5.84375 L 3.46875 -5.84375 L 3.46875 -5.8125 L 1.109375 -5.8125 L 1.109375 -3.34375 L 4.578125 -3.34375 L 4.578125 -3.171875 C 4.578125 -2.140625 4.78125 -1.375 5.171875 -0.828125 C 5.171875 -0.796875 5.203125 -0.796875 5.203125 -0.796875 L 2.671875 -0.796875 C 3.078125 -0.265625 3.734375 0 4.609375 0 L 22.9375 0 C 23.171875 0 23.703125 -0.0625 23.84375 -0.796875 L 26.375 -0.796875 C 26.40625 -0.90625 26.40625 -1 26.40625 -1.140625 L 26.40625 -3.34375 L 24.140625 -3.34375 L 24.140625 -3.8125 C 24.140625 -4.84375 23.46875 -4.9375 23.171875 -4.9375 L 7.375 -4.9375 C 7.3125 -4.9375 7.28125 -5.015625 7.28125 -5.046875 L 7.28125 -5.8125 L 8.421875 -5.8125 L 8.421875 -5.84375 L 12.125 -5.84375 L 12.125 -6.140625 C 12.125 -6.171875 12.15625 -6.203125 12.15625 -6.203125 L 12.859375 -6.71875 L 8.015625 -6.71875 L 15.5 -12.09375 L 17.96875 -12.09375 L 20.796875 -14.125 L 17.734375 -14.125 L 19.875 -15.65625 L 22.90625 -15.65625 L 25.203125 -17.328125 C 25.515625 -17.53125 25.78125 -17.734375 25.9375 -17.9375 C 26.046875 -18 26.109375 -18.09375 26.171875 -18.203125 L 23.875 -18.203125 C 23.96875 -18.328125 24.078125 -18.5 24.140625 -18.671875 C 24.234375 -18.9375 24.34375 -19.234375 24.375 -19.5625 Z M 11.6875 -17.03125 L 6.140625 -17.03125 L 6.140625 -17.703125 L 11.6875 -17.703125 Z M 17.828125 -7.21875 L 12.28125 -7.21875 L 12.28125 -7.84375 L 17.828125 -7.84375 Z M 22.171875 -9.578125 L 16.625 -9.578125 L 16.625 -10.25 L 22.171875 -10.25 Z M 15.5625 -20.5625 L 9.515625 -20.5625 L 9.515625 -21.109375 L 15.5625 -21.109375 Z M 15.5625 -20.5625 "/></g></g></g><g fill="#00ff43" fill-opacity="1"><g transform="translate(105.298915, 278.912869)"><g><path d="M 7.078125 -7.046875 C 7.335938 -7.046875 7.609375 -6.988281 7.890625 -6.875 C 8.179688 -6.757812 8.460938 -6.609375 8.734375 -6.421875 L 8.71875 -6.421875 C 8.988281 -6.234375 9.191406 -5.976562 9.328125 -5.65625 C 9.472656 -5.34375 9.546875 -4.984375 9.546875 -4.578125 L 9.546875 -2.46875 C 9.546875 -1.632812 9.269531 -1.007812 8.71875 -0.59375 C 8.445312 -0.40625 8.171875 -0.253906 7.890625 -0.140625 C 7.609375 -0.0351562 7.335938 0.015625 7.078125 0.015625 L 3.71875 0.015625 C 3.445312 0.015625 3.171875 -0.0351562 2.890625 -0.140625 C 2.609375 -0.253906 2.332031 -0.40625 2.0625 -0.59375 C 1.507812 -1.007812 1.234375 -1.632812 1.234375 -2.46875 L 1.234375 -3.484375 C 1.234375 -3.960938 1.535156 -4.203125 2.140625 -4.203125 C 2.753906 -4.203125 3.0625 -3.960938 3.0625 -3.484375 L 3.0625 -2.59375 C 3.0625 -2.320312 3.140625 -2.078125 3.296875 -1.859375 C 3.453125 -1.648438 3.71875 -1.546875 4.09375 -1.546875 L 6.6875 -1.546875 C 7.0625 -1.546875 7.328125 -1.648438 7.484375 -1.859375 C 7.640625 -2.078125 7.71875 -2.320312 7.71875 -2.59375 L 7.71875 -4.453125 C 7.71875 -4.710938 7.640625 -4.953125 7.484375 -5.171875 C 7.328125 -5.390625 7.0625 -5.5 6.6875 -5.5 L 3.71875 -5.5 C 3.175781 -5.5 2.625 -5.691406 2.0625 -6.078125 C 1.507812 -6.515625 1.234375 -7.140625 1.234375 -7.953125 L 1.234375 -9.78125 C 1.234375 -10.195312 1.300781 -10.5625 1.4375 -10.875 C 1.582031 -11.1875 1.789062 -11.4375 2.0625 -11.625 L 2.046875 -11.625 C 2.316406 -11.800781 2.59375 -11.945312 2.875 -12.0625 C 3.164062 -12.175781 3.445312 -12.234375 3.71875 -12.234375 L 7.078125 -12.234375 C 7.335938 -12.234375 7.609375 -12.175781 7.890625 -12.0625 C 8.179688 -11.945312 8.460938 -11.800781 8.734375 -11.625 L 8.71875 -11.625 C 8.988281 -11.4375 9.191406 -11.1875 9.328125 -10.875 C 9.472656 -10.5625 9.546875 -10.195312 9.546875 -9.78125 L 9.546875 -8.875 C 9.546875 -8.394531 9.238281 -8.15625 8.625 -8.15625 C 8.019531 -8.15625 7.71875 -8.394531 7.71875 -8.875 L 7.71875 -9.640625 C 7.71875 -9.898438 7.640625 -10.132812 7.484375 -10.34375 C 7.328125 -10.5625 7.0625 -10.671875 6.6875 -10.671875 L 4.09375 -10.671875 C 3.71875 -10.671875 3.453125 -10.5625 3.296875 -10.34375 C 3.140625 -10.132812 3.0625 -9.898438 3.0625 -9.640625 L 3.0625 -8.078125 C 3.0625 -7.804688 3.140625 -7.566406 3.296875 -7.359375 C 3.453125 -7.148438 3.71875 -7.046875 4.09375 -7.046875 Z M 7.078125 -7.046875 "/></g></g></g><g fill="#00ff43" fill-opacity="1"><g transform="translate(128.378083, 278.912869)"><g><path d="M 3.125 -0.640625 C 3.125 -0.148438 2.816406 0.09375 2.203125 0.09375 C 1.597656 0.09375 1.296875 -0.148438 1.296875 -0.640625 L 1.296875 -11.5625 C 1.296875 -12.0625 1.597656 -12.3125 2.203125 -12.3125 C 2.816406 -12.3125 3.125 -12.0625 3.125 -11.5625 Z M 3.125 -0.640625 "/></g></g></g><g fill="#00ff43" fill-opacity="1"><g transform="translate(145.076727, 278.912869)"><g><path d="M 7.078125 -7.046875 C 7.335938 -7.046875 7.609375 -6.988281 7.890625 -6.875 C 8.179688 -6.757812 8.460938 -6.609375 8.734375 -6.421875 L 8.71875 -6.421875 C 8.988281 -6.234375 9.191406 -5.976562 9.328125 -5.65625 C 9.472656 -5.34375 9.546875 -4.984375 9.546875 -4.578125 L 9.546875 -2.46875 C 9.546875 -1.632812 9.269531 -1.007812 8.71875 -0.59375 C 8.445312 -0.40625 8.171875 -0.253906 7.890625 -0.140625 C 7.609375 -0.0351562 7.335938 0.015625 7.078125 0.015625 L 3.71875 0.015625 C 3.445312 0.015625 3.171875 -0.0351562 2.890625 -0.140625 C 2.609375 -0.253906 2.332031 -0.40625 2.0625 -0.59375 C 1.507812 -1.007812 1.234375 -1.632812 1.234375 -2.46875 L 1.234375 -3.484375 C 1.234375 -3.960938 1.535156 -4.203125 2.140625 -4.203125 C 2.753906 -4.203125 3.0625 -3.960938 3.0625 -3.484375 L 3.0625 -2.59375 C 3.0625 -2.320312 3.140625 -2.078125 3.296875 -1.859375 C 3.453125 -1.648438 3.71875 -1.546875 4.09375 -1.546875 L 6.6875 -1.546875 C 7.0625 -1.546875 7.328125 -1.648438 7.484375 -1.859375 C 7.640625 -2.078125 7.71875 -2.320312 7.71875 -2.59375 L 7.71875 -4.453125 C 7.71875 -4.710938 7.640625 -4.953125 7.484375 -5.171875 C 7.328125 -5.390625 7.0625 -5.5 6.6875 -5.5 L 3.71875 -5.5 C 3.175781 -5.5 2.625 -5.691406 2.0625 -6.078125 C 1.507812 -6.515625 1.234375 -7.140625 1.234375 -7.953125 L 1.234375 -9.78125 C 1.234375 -10.195312 1.300781 -10.5625 1.4375 -10.875 C 1.582031 -11.1875 1.789062 -11.4375 2.0625 -11.625 L 2.046875 -11.625 C 2.316406 -11.800781 2.59375 -11.945312 2.875 -12.0625 C 3.164062 -12.175781 3.445312 -12.234375 3.71875 -12.234375 L 7.078125 -12.234375 C 7.335938 -12.234375 7.609375 -12.175781 7.890625 -12.0625 C 8.179688 -11.945312 8.460938 -11.800781 8.734375 -11.625 L 8.71875 -11.625 C 8.988281 -11.4375 9.191406 -11.1875 9.328125 -10.875 C 9.472656 -10.5625 9.546875 -10.195312 9.546875 -9.78125 L 9.546875 -8.875 C 9.546875 -8.394531 9.238281 -8.15625 8.625 -8.15625 C 8.019531 -8.15625 7.71875 -8.394531 7.71875 -8.875 L 7.71875 -9.640625 C 7.71875 -9.898438 7.640625 -10.132812 7.484375 -10.34375 C 7.328125 -10.5625 7.0625 -10.671875 6.6875 -10.671875 L 4.09375 -10.671875 C 3.71875 -10.671875 3.453125 -10.5625 3.296875 -10.34375 C 3.140625 -10.132812 3.0625 -9.898438 3.0625 -9.640625 L 3.0625 -8.078125 C 3.0625 -7.804688 3.140625 -7.566406 3.296875 -7.359375 C 3.453125 -7.148438 3.71875 -7.046875 4.09375 -7.046875 Z M 7.078125 -7.046875 "/></g></g></g><g fill="#00ff43" fill-opacity="1"><g transform="translate(168.155896, 278.912869)"><g><path d="M 5.34375 -0.609375 C 5.34375 -0.117188 5.035156 0.125 4.421875 0.125 C 3.816406 0.125 3.515625 -0.117188 3.515625 -0.609375 L 3.515625 -10.671875 L 0.8125 -10.671875 C 0.445312 -10.671875 0.253906 -10.9375 0.234375 -11.46875 C 0.234375 -11.976562 0.425781 -12.234375 0.8125 -12.234375 L 8.046875 -12.234375 C 8.429688 -12.234375 8.613281 -11.976562 8.59375 -11.46875 C 8.59375 -10.9375 8.410156 -10.671875 8.046875 -10.671875 L 5.34375 -10.671875 Z M 5.34375 -0.609375 "/></g></g></g><g fill="#00ff43" fill-opacity="1"><g transform="translate(189.231519, 278.912869)"><g><path d="M 2.21875 0.015625 C 1.84375 0.015625 1.585938 -0.078125 1.453125 -0.265625 C 1.316406 -0.460938 1.25 -0.679688 1.25 -0.921875 L 1.25 -11.3125 C 1.25 -11.539062 1.316406 -11.75 1.453125 -11.9375 C 1.585938 -12.132812 1.84375 -12.234375 2.21875 -12.234375 L 7.578125 -12.234375 C 7.960938 -12.234375 8.164062 -11.976562 8.1875 -11.46875 C 8.207031 -10.9375 8.003906 -10.671875 7.578125 -10.671875 L 3.0625 -10.671875 L 3.0625 -1.546875 L 7.859375 -1.546875 C 8.234375 -1.546875 8.425781 -1.289062 8.4375 -0.78125 C 8.457031 -0.25 8.265625 0.015625 7.859375 0.015625 Z M 7.015625 -6.359375 C 7.015625 -6.003906 6.882812 -5.703125 6.625 -5.453125 C 6.375 -5.203125 6.070312 -5.078125 5.71875 -5.078125 C 5.363281 -5.078125 5.0625 -5.203125 4.8125 -5.453125 C 4.570312 -5.703125 4.453125 -6.003906 4.453125 -6.359375 C 4.453125 -6.722656 4.570312 -7.023438 4.8125 -7.265625 C 5.0625 -7.515625 5.363281 -7.640625 5.71875 -7.640625 C 6.070312 -7.640625 6.375 -7.515625 6.625 -7.265625 C 6.882812 -7.023438 7.015625 -6.722656 7.015625 -6.359375 Z M 7.015625 -6.359375 "/></g></g></g><g fill="#00ff43" fill-opacity="1"><g transform="translate(210.445847, 278.912869)"><g><path d="M 10.671875 -12.3125 C 11.003906 -12.3125 11.363281 -12.234375 11.75 -12.078125 C 12.113281 -11.929688 12.296875 -11.660156 12.296875 -11.265625 L 12.296875 -0.640625 C 12.296875 -0.148438 11.992188 0.09375 11.390625 0.09375 C 10.773438 0.09375 10.46875 -0.148438 10.46875 -0.640625 L 10.46875 -8.5625 L 10.03125 -8.609375 L 9.40625 -6.609375 L 7.5625 -0.453125 C 7.445312 -0.0859375 7.171875 0.0859375 6.734375 0.078125 C 6.535156 0.0664062 6.363281 0.015625 6.21875 -0.078125 C 6.082031 -0.171875 5.988281 -0.304688 5.9375 -0.484375 L 4.828125 -4.0625 C 4.597656 -4.769531 4.367188 -5.488281 4.140625 -6.21875 C 3.921875 -6.957031 3.675781 -7.773438 3.40625 -8.671875 L 2.953125 -8.609375 L 2.953125 -0.640625 C 2.953125 -0.148438 2.648438 0.09375 2.046875 0.09375 C 1.441406 0.09375 1.140625 -0.148438 1.140625 -0.640625 L 1.140625 -11.265625 C 1.140625 -11.648438 1.316406 -11.921875 1.671875 -12.078125 C 2.054688 -12.234375 2.421875 -12.304688 2.765625 -12.296875 C 2.921875 -12.296875 3.082031 -12.273438 3.25 -12.234375 C 3.414062 -12.191406 3.566406 -12.128906 3.703125 -12.046875 C 3.847656 -11.972656 3.976562 -11.875 4.09375 -11.75 C 4.207031 -11.632812 4.296875 -11.503906 4.359375 -11.359375 L 6.78125 -3.109375 C 6.957031 -3.710938 7.140625 -4.367188 7.328125 -5.078125 C 7.523438 -5.785156 7.726562 -6.503906 7.9375 -7.234375 C 8.144531 -7.960938 8.347656 -8.679688 8.546875 -9.390625 C 8.742188 -10.109375 8.929688 -10.78125 9.109375 -11.40625 C 9.171875 -11.539062 9.253906 -11.664062 9.359375 -11.78125 C 9.472656 -11.894531 9.601562 -11.988281 9.75 -12.0625 C 9.894531 -12.144531 10.046875 -12.207031 10.203125 -12.25 C 10.367188 -12.289062 10.523438 -12.3125 10.671875 -12.3125 Z M 10.671875 -12.3125 "/></g></g></g><g fill="#00ff43" fill-opacity="1"><g transform="translate(236.021733, 278.912869)"><g><path d="M 5.28125 -10.71875 L 1.90625 -0.375 L 1.90625 -0.390625 C 1.84375 -0.234375 1.757812 -0.101562 1.65625 0 C 1.550781 0.09375 1.421875 0.140625 1.265625 0.140625 C 1.179688 0.140625 1.097656 0.128906 1.015625 0.109375 C 0.941406 0.0976562 0.863281 0.0820312 0.78125 0.0625 L 0.796875 0.0625 C 0.210938 -0.125 0 -0.453125 0.15625 -0.921875 L 3.671875 -11.59375 C 3.722656 -11.757812 3.8125 -11.898438 3.9375 -12.015625 C 4.0625 -12.128906 4.210938 -12.195312 4.390625 -12.21875 C 4.566406 -12.25 4.734375 -12.269531 4.890625 -12.28125 C 5.054688 -12.300781 5.1875 -12.3125 5.28125 -12.3125 C 5.375 -12.3125 5.503906 -12.300781 5.671875 -12.28125 C 5.835938 -12.269531 6.003906 -12.253906 6.171875 -12.234375 C 6.316406 -12.210938 6.457031 -12.132812 6.59375 -12 C 6.738281 -11.863281 6.847656 -11.726562 6.921875 -11.59375 C 7.492188 -9.832031 8.070312 -8.054688 8.65625 -6.265625 C 9.25 -4.472656 9.835938 -2.691406 10.421875 -0.921875 C 10.554688 -0.453125 10.335938 -0.125 9.765625 0.0625 C 9.679688 0.0820312 9.601562 0.0976562 9.53125 0.109375 C 9.46875 0.128906 9.398438 0.140625 9.328125 0.140625 C 9.179688 0.140625 9.046875 0.09375 8.921875 0 C 8.804688 -0.101562 8.722656 -0.234375 8.671875 -0.390625 L 8.671875 -0.375 Z M 6.4375 -3.703125 C 6.4375 -3.367188 6.320312 -3.085938 6.09375 -2.859375 C 5.863281 -2.628906 5.582031 -2.515625 5.25 -2.515625 C 4.925781 -2.515625 4.648438 -2.628906 4.421875 -2.859375 C 4.191406 -3.085938 4.078125 -3.367188 4.078125 -3.703125 C 4.078125 -4.023438 4.191406 -4.300781 4.421875 -4.53125 C 4.648438 -4.769531 4.925781 -4.890625 5.25 -4.890625 C 5.582031 -4.890625 5.863281 -4.769531 6.09375 -4.53125 C 6.320312 -4.300781 6.4375 -4.023438 6.4375 -3.703125 Z M 6.4375 -3.703125 "/></g></g></g><g fill="#00ff43" fill-opacity="1"><g transform="translate(258.931371, 278.912869)"><g><path d="M 7.078125 -7.046875 C 7.335938 -7.046875 7.609375 -6.988281 7.890625 -6.875 C 8.179688 -6.757812 8.460938 -6.609375 8.734375 -6.421875 L 8.71875 -6.421875 C 8.988281 -6.234375 9.191406 -5.976562 9.328125 -5.65625 C 9.472656 -5.34375 9.546875 -4.984375 9.546875 -4.578125 L 9.546875 -2.46875 C 9.546875 -1.632812 9.269531 -1.007812 8.71875 -0.59375 C 8.445312 -0.40625 8.171875 -0.253906 7.890625 -0.140625 C 7.609375 -0.0351562 7.335938 0.015625 7.078125 0.015625 L 3.71875 0.015625 C 3.445312 0.015625 3.171875 -0.0351562 2.890625 -0.140625 C 2.609375 -0.253906 2.332031 -0.40625 2.0625 -0.59375 C 1.507812 -1.007812 1.234375 -1.632812 1.234375 -2.46875 L 1.234375 -3.484375 C 1.234375 -3.960938 1.535156 -4.203125 2.140625 -4.203125 C 2.753906 -4.203125 3.0625 -3.960938 3.0625 -3.484375 L 3.0625 -2.59375 C 3.0625 -2.320312 3.140625 -2.078125 3.296875 -1.859375 C 3.453125 -1.648438 3.71875 -1.546875 4.09375 -1.546875 L 6.6875 -1.546875 C 7.0625 -1.546875 7.328125 -1.648438 7.484375 -1.859375 C 7.640625 -2.078125 7.71875 -2.320312 7.71875 -2.59375 L 7.71875 -4.453125 C 7.71875 -4.710938 7.640625 -4.953125 7.484375 -5.171875 C 7.328125 -5.390625 7.0625 -5.5 6.6875 -5.5 L 3.71875 -5.5 C 3.175781 -5.5 2.625 -5.691406 2.0625 -6.078125 C 1.507812 -6.515625 1.234375 -7.140625 1.234375 -7.953125 L 1.234375 -9.78125 C 1.234375 -10.195312 1.300781 -10.5625 1.4375 -10.875 C 1.582031 -11.1875 1.789062 -11.4375 2.0625 -11.625 L 2.046875 -11.625 C 2.316406 -11.800781 2.59375 -11.945312 2.875 -12.0625 C 3.164062 -12.175781 3.445312 -12.234375 3.71875 -12.234375 L 7.078125 -12.234375 C 7.335938 -12.234375 7.609375 -12.175781 7.890625 -12.0625 C 8.179688 -11.945312 8.460938 -11.800781 8.734375 -11.625 L 8.71875 -11.625 C 8.988281 -11.4375 9.191406 -11.1875 9.328125 -10.875 C 9.472656 -10.5625 9.546875 -10.195312 9.546875 -9.78125 L 9.546875 -8.875 C 9.546875 -8.394531 9.238281 -8.15625 8.625 -8.15625 C 8.019531 -8.15625 7.71875 -8.394531 7.71875 -8.875 L 7.71875 -9.640625 C 7.71875 -9.898438 7.640625 -10.132812 7.484375 -10.34375 C 7.328125 -10.5625 7.0625 -10.671875 6.6875 -10.671875 L 4.09375 -10.671875 C 3.71875 -10.671875 3.453125 -10.5625 3.296875 -10.34375 C 3.140625 -10.132812 3.0625 -9.898438 3.0625 -9.640625 L 3.0625 -8.078125 C 3.0625 -7.804688 3.140625 -7.566406 3.296875 -7.359375 C 3.453125 -7.148438 3.71875 -7.046875 4.09375 -7.046875 Z M 7.078125 -7.046875 "/></g></g></g><g clip-path="url(#c78c90463a)"><path fill="#00ff43" d="M 118.164062 95.710938 L 140.191406 95.710938 L 140.191406 117.742188 L 118.164062 117.742188 Z M 118.164062 95.710938 " fill-opacity="1" fill-rule="nonzero"/></g></svg>